<svg width="16" height="12" viewBox="0 0 16 12" fill="none" xmlns="http://www.w3.org/2000/svg">
<path d="M15.7831 5.94015L11.0217 1.17881C10.7312 0.888312 10.2601 0.888312 9.96961 1.17881C9.67905 1.46937 9.67905 1.94039 9.96961 2.23095L13.4609 5.72226H0.744936C0.334092 5.72226 0.000976562 6.05538 0.000976562 6.46622C0.000976562 6.877 0.334092 7.21018 0.744936 7.21018H13.4609L9.96973 10.7015C9.67917 10.9921 9.67917 11.4631 9.96973 11.7536C10.115 11.8988 10.3054 11.9715 10.4958 11.9715C10.6862 11.9715 10.8766 11.8988 11.0219 11.7536L15.7831 6.99229C16.0736 6.70173 16.0736 6.23071 15.7831 5.94015Z" fill="white"/>
</svg>
