<svg width="10" height="17" viewBox="0 0 10 17" fill="none" xmlns="http://www.w3.org/2000/svg">
<path d="M9.44493 8.12128L2.32473 1.00121C2.16005 0.836401 1.94021 0.745605 1.70581 0.745605C1.47141 0.745605 1.25157 0.836401 1.08689 1.00121L0.562535 1.52544C0.221334 1.86703 0.221334 2.42221 0.562535 2.76328L6.54154 8.74229L0.555901 14.7279C0.391219 14.8927 0.300293 15.1124 0.300293 15.3467C0.300293 15.5813 0.391219 15.801 0.555901 15.9659L1.08025 16.49C1.24507 16.6548 1.46477 16.7456 1.69918 16.7456C1.93358 16.7456 2.15342 16.6548 2.3181 16.49L9.44493 9.36342C9.61 9.19809 9.70067 8.97734 9.70015 8.74268C9.70067 8.5071 9.61 8.28649 9.44493 8.12128Z" fill="#666666"/>
</svg>
