<svg width="10" height="17" viewBox="0 0 10 17" fill="none" xmlns="http://www.w3.org/2000/svg">
<path d="M0.555068 9.36993L7.67527 16.49C7.83995 16.6548 8.05979 16.7456 8.29419 16.7456C8.52859 16.7456 8.74843 16.6548 8.91311 16.49L9.43747 15.9658C9.77867 15.6242 9.77867 15.069 9.43747 14.7279L3.45846 8.74892L9.4441 2.76328C9.60878 2.59847 9.69971 2.37876 9.69971 2.14449C9.69971 1.90995 9.60878 1.69025 9.4441 1.52531L8.91975 1.00121C8.75493 0.836402 8.53523 0.745606 8.30082 0.745606C8.06642 0.745606 7.84658 0.836402 7.6819 1.00121L0.555068 8.12779C0.389997 8.29312 0.299331 8.51387 0.29985 8.74853C0.299331 8.98411 0.389997 9.20472 0.555068 9.36993Z" fill="#D1CECE"/>
</svg>
