<svg width="44" height="51" viewBox="0 0 44 51" fill="none" xmlns="http://www.w3.org/2000/svg">
<path d="M43.4967 14.0382L43.4952 13.9993C43.4734 13.519 43.4589 13.0109 43.4502 12.4456C43.4093 9.68868 41.2178 7.40826 38.4606 7.25415C32.7118 6.93334 28.2647 5.0588 24.4649 1.35512L24.4324 1.32422C23.193 0.187825 21.3235 0.187825 20.0837 1.32422L20.0513 1.35512C16.2514 5.0588 11.8043 6.93334 6.05556 7.25453C3.29868 7.40826 1.10676 9.68868 1.06595 12.4459C1.05755 13.0075 1.04268 13.5156 1.02093 13.9993L1.01864 14.0897C0.906873 19.9517 0.768019 27.2473 3.20866 33.8692C4.55066 37.5107 6.58313 40.6761 9.24921 43.2781C12.2857 46.2414 16.2629 48.5939 21.0702 50.2701C21.2266 50.3246 21.3891 50.3689 21.5546 50.4021C21.7881 50.4486 22.0231 50.4719 22.2581 50.4719C22.493 50.4719 22.7284 50.4486 22.9615 50.4021C23.127 50.3689 23.2907 50.3243 23.4479 50.2693C28.2494 48.5901 32.2224 46.2364 35.2562 43.2736C37.9212 40.6708 39.9536 37.5046 41.2968 33.8624C43.7466 27.2206 43.6081 19.9113 43.4967 14.0382ZM38.5441 32.8473C35.9699 39.8266 30.7152 44.6198 22.4797 47.4999C22.4503 47.5098 22.419 47.5186 22.3866 47.525C22.3015 47.5418 22.2149 47.5418 22.1287 47.5247C22.0967 47.5182 22.0654 47.5098 22.0364 47.4999C13.7921 44.6251 8.53396 39.8346 5.96171 32.8549C3.71219 26.751 3.8396 20.054 3.95214 14.1458L3.9529 14.113C3.97579 13.6052 3.99105 13.0735 3.99944 12.489C4.01775 11.2649 4.99278 10.2521 6.21921 10.1838C9.47237 10.0023 12.3303 9.37359 14.9564 8.26199C17.579 7.15192 19.9082 5.58713 22.0765 3.47837C22.1867 3.3853 22.3298 3.38491 22.4396 3.47837C24.6083 5.58713 26.9375 7.15192 29.5597 8.26199C32.1858 9.37359 35.0437 10.0023 38.2973 10.1838C39.5237 10.2521 40.4987 11.2649 40.5167 12.4894C40.5254 13.0769 40.5407 13.6087 40.5636 14.113C40.6757 20.028 40.8001 26.7304 38.5441 32.8473Z" fill="#244D4D"/>
<path d="M22.2572 13.0121C15.3861 13.0121 9.79645 18.6021 9.79645 25.4728C9.79645 32.3438 15.3861 37.9339 22.2572 37.9339C29.1278 37.9339 34.7179 32.3438 34.7179 25.4728C34.7179 18.6021 29.1278 13.0121 22.2572 13.0121ZM22.2572 34.9996C17.0039 34.9996 12.7303 30.726 12.7303 25.4728C12.7303 20.2196 17.0039 15.946 22.2572 15.946C27.51 15.946 31.7836 20.2196 31.7836 25.4728C31.7836 30.726 27.51 34.9996 22.2572 34.9996Z" fill="#244D4D"/>
<path d="M25.8384 21.6043L20.0507 27.392L18.4798 25.8211C17.9069 25.2481 16.978 25.2481 16.405 25.8211C15.8324 26.3941 15.8324 27.3229 16.405 27.8955L19.0135 30.504C19.3 30.7905 19.6754 30.9336 20.0507 30.9336C20.4261 30.9336 20.8015 30.7905 21.0879 30.504L27.9132 23.6788C28.4858 23.1058 28.4858 22.1769 27.9132 21.6043C27.3402 21.031 26.4114 21.031 25.8384 21.6043Z" fill="#244D4D"/>
</svg>
