<svg width="10" height="10" viewBox="0 0 10 10" fill="none" xmlns="http://www.w3.org/2000/svg">
<path d="M9.47729 1.53873C9.38528 1.2894 9.23849 1.06372 9.04776 0.878479C8.86252 0.687744 8.63699 0.540955 8.38751 0.448944C8.18518 0.370361 7.88123 0.276825 7.32138 0.251343C6.71576 0.223724 6.53418 0.217773 5.00098 0.217773C3.46762 0.217773 3.28604 0.223572 2.68057 0.25119C2.12073 0.276825 1.81662 0.370361 1.61444 0.448944C1.36496 0.540955 1.13928 0.687744 0.954193 0.878479C0.763458 1.06372 0.616669 1.28925 0.524506 1.53873C0.445923 1.74106 0.352386 2.04517 0.326904 2.60501C0.299286 3.21048 0.293335 3.39206 0.293335 4.92542C0.293335 6.45862 0.299286 6.6402 0.326904 7.24582C0.352386 7.80567 0.445923 8.10962 0.524506 8.31195C0.616669 8.56143 0.763306 8.78696 0.954041 8.9722C1.13928 9.16294 1.36481 9.30972 1.61429 9.40174C1.81662 9.48047 2.12073 9.57401 2.68057 9.59949C3.28604 9.62711 3.46747 9.63291 5.00082 9.63291C6.53433 9.63291 6.71591 9.62711 7.32123 9.59949C7.88107 9.57401 8.18518 9.48047 8.38751 9.40174C8.88831 9.20856 9.28412 8.81275 9.47729 8.31195C9.55588 8.10962 9.64941 7.80567 9.67505 7.24582C9.70267 6.6402 9.70847 6.45862 9.70847 4.92542C9.70847 3.39206 9.70267 3.21048 9.67505 2.60501C9.64957 2.04517 9.55603 1.74106 9.47729 1.53873ZM5.00098 7.87387C3.37241 7.87387 2.05222 6.55383 2.05222 4.92526C2.05222 3.29669 3.37241 1.97665 5.00098 1.97665C6.62939 1.97665 7.94958 3.29669 7.94958 4.92526C7.94958 6.55383 6.62939 7.87387 5.00098 7.87387ZM8.06616 2.54916C7.68561 2.54916 7.37708 2.24063 7.37708 1.86008C7.37708 1.47952 7.68561 1.17099 8.06616 1.17099C8.44672 1.17099 8.75525 1.47952 8.75525 1.86008C8.7551 2.24063 8.44672 2.54916 8.06616 2.54916Z" fill="white"/>
</svg>
