<svg width="13" height="10" viewBox="0 0 13 10" fill="none" xmlns="http://www.w3.org/2000/svg">
<path d="M12.1263 1.11185C11.6978 1.30188 11.2368 1.4304 10.7534 1.4878C11.247 1.19207 11.6258 0.724141 11.8046 0.165659C11.3427 0.439642 10.8309 0.6384 10.2867 0.745533C9.85071 0.281171 9.22948 -0.0090332 8.54158 -0.0090332C7.22176 -0.0090332 6.15132 1.06141 6.15132 2.38123C6.15132 2.56858 6.17253 2.75093 6.21353 2.92598C4.22703 2.82634 2.46566 1.8748 1.28666 0.428233C1.08095 0.781184 0.962948 1.19207 0.962948 1.63005C0.962948 2.45913 1.38524 3.19105 2.02626 3.61958C1.63462 3.60728 1.26581 3.49979 0.943696 3.32029C0.943518 3.33045 0.943517 3.34061 0.943517 3.35059C0.943517 4.50873 1.76778 5.47471 2.86104 5.69415C2.66068 5.74905 2.44908 5.77811 2.23143 5.77811C2.07706 5.77811 1.9275 5.76331 1.78169 5.7355C2.08579 6.68491 2.96835 7.37601 4.01454 7.39544C3.19634 8.03664 2.16583 8.41864 1.04566 8.41864C0.853141 8.41864 0.662405 8.40741 0.475769 8.38513C1.53302 9.06358 2.78973 9.45913 4.1395 9.45913C8.53606 9.45913 10.9404 5.81697 10.9404 2.65806C10.9404 2.55449 10.9381 2.45128 10.9334 2.34896C11.4008 2.01205 11.806 1.59119 12.1263 1.11185Z" fill="#305F64"/>
</svg>
